<?xml version="1.0" encoding="UTF-8"?>
<svg width="71px" height="52px" viewBox="0 0 71 52" version="1.1" xmlns="http://www.w3.org/2000/svg" xmlns:xlink="http://www.w3.org/1999/xlink">
    <title>BA5B18CD-CFD6-4601-AC22-E90068A5F6B8@1.00x</title>
    <g id="Symbols" stroke="none" stroke-width="1" fill="none" fill-rule="evenodd">
        <g id="1_Desktop-/_Components/Logo/-Shop-logo" transform="translate(1.000000, 1.000000)" fill="#242523" stroke="#242623">
            <g id="elle-logo">
                <path d="M12.4314589,42.2576667 C18.630874,42.2576667 22.8073221,39.2285696 23.7861772,34.5621227 L17.3583625,34.1364118 C16.6568497,36.052111 14.8622822,37.0508944 12.5456586,37.0508944 C9.07072326,37.0508944 6.86829944,34.7422312 6.86829944,30.9927002 L6.86829944,30.9763267 L23.9330054,30.9763267 L23.9330054,29.0606275 C23.9330054,20.5136616 18.7777023,16.2892991 12.1541166,16.2892991 C4.78007539,16.2892991 0,21.545192 0,29.3062299 C0,37.2801234 4.71481838,42.2576667 12.4314589,42.2576667 Z M17.390991,26.6537233 L6.86829944,26.6537233 C7.0151277,23.7883612 9.18492301,21.4960715 12.2683163,21.4960715 C15.2864527,21.4960715 17.3746767,23.6573732 17.390991,26.6537233 Z M32.9571404,50 L32.9571404,8.2335382 L26.0072697,8.2335382 L26.0072697,50 L32.9571404,50 Z M42.9927446,41.7664618 L42.9927446,0 L36.0428739,0 L36.0428739,41.7664618 L42.9927446,41.7664618 Z M57.4984534,42.2576667 C63.6978686,42.2576667 67.8743167,39.2285696 68.8531717,34.5621227 L62.4253571,34.1364118 C61.7238443,36.052111 59.9292767,37.0508944 57.6126532,37.0508944 C54.1377178,37.0508944 51.935294,34.7422312 51.935294,30.9927002 L51.935294,30.9763267 L69,30.9763267 L69,29.0606275 C69,20.5136616 63.8446969,16.2892991 57.2211112,16.2892991 C49.84707,16.2892991 45.0669946,21.545192 45.0669946,29.3062299 C45.0669946,37.2801234 49.781813,42.2576667 57.4984534,42.2576667 Z M62.4579856,26.6537233 L51.935294,26.6537233 C52.0821223,23.7883612 54.2519176,21.4960715 57.3353109,21.4960715 C60.3534473,21.4960715 62.4416713,23.6573732 62.4579856,26.6537233 Z" id="elle"></path>
            </g>
        </g>
    </g>
</svg>