<?xml version="1.0" encoding="UTF-8"?>
<svg width="55px" height="40px" viewBox="0 0 55 40" version="1.1" xmlns="http://www.w3.org/2000/svg" xmlns:xlink="http://www.w3.org/1999/xlink" style="background: #FFFFFF;">
    <title>1_Desktop /_Components/Logo/ Shop logo Copy</title>
    <g id="1_Desktop-/_Components/Logo/-Shop-logo-Copy" stroke="none" stroke-width="1" fill="none" fill-rule="evenodd">
        <rect fill="#FFFFFF" x="0" y="0" width="55" height="40"></rect>
        <g id="elle-logo" fill="#242523" stroke="#242623">
            <path d="M9.90913387,33.8061334 C14.8506967,33.8061334 18.1797495,31.3828557 18.9599963,27.6496982 L13.8363759,27.3091294 C13.2771991,28.8416888 11.8467467,29.6407155 10.0001627,29.6407155 C7.23028665,29.6407155 5.47473144,27.793785 5.47473144,24.7941602 L5.47473144,24.7810614 L19.0770333,24.7810614 L19.0770333,23.248502 C19.0770333,16.4109293 14.9677337,13.0314393 9.68806395,13.0314393 C3.81020502,13.0314393 0,17.2361536 0,23.4449839 C0,29.8240987 3.75818857,33.8061334 9.90913387,33.8061334 Z M13.8623841,21.3229786 L5.47473144,21.3229786 C5.59176846,19.0306889 7.32131544,17.1968572 9.77909274,17.1968572 C12.1848536,17.1968572 13.84938,18.9258985 13.8623841,21.3229786 Z M26.2701844,40 L26.2701844,6.58683056 L20.7304324,6.58683056 L20.7304324,40 L26.2701844,40 Z M34.269579,33.4131694 L34.269579,0 L28.729827,0 L28.729827,33.4131694 L34.269579,33.4131694 Z M45.8321006,33.8061334 C50.7736634,33.8061334 54.1027162,31.3828557 54.882963,27.6496982 L49.7593426,27.3091294 C49.2001657,28.8416888 47.7697133,29.6407155 45.9231293,29.6407155 C43.1532533,29.6407155 41.3976981,27.793785 41.3976981,24.7941602 L41.3976981,24.7810614 L55,24.7810614 L55,23.248502 C55,16.4109293 50.8907004,13.0314393 45.6110306,13.0314393 C39.7331717,13.0314393 35.9229667,17.2361536 35.9229667,23.4449839 C35.9229667,29.8240987 39.6811553,33.8061334 45.8321006,33.8061334 Z M49.7853508,21.3229786 L41.3976981,21.3229786 C41.5147351,19.0306889 43.2442821,17.1968572 45.7020594,17.1968572 C48.1078203,17.1968572 49.7723467,18.9258985 49.7853508,21.3229786 Z" id="elle"></path>
        </g>
    </g>
</svg>